<svg xmlns="http://www.w3.org/2000/svg" width="25.583" height="16" viewBox="0 0 25.583 16"><path d="M16.049-8.167H8.508v2.792h4.542A3.863,3.863,0,0,1,12.466-4a3.85,3.85,0,0,1-1.417,1.417,5,5,0,0,1-2.542.625,4.845,4.845,0,0,1-2.479-.667A4.887,4.887,0,0,1,4.216-4.458,5.035,5.035,0,0,1,3.549-7a5.035,5.035,0,0,1,.667-2.542,4.887,4.887,0,0,1,1.813-1.833,4.845,4.845,0,0,1,2.479-.667,4.371,4.371,0,0,1,3.167,1.208l2.167-2.083A7.492,7.492,0,0,0,8.508-15a7.832,7.832,0,0,0-4.021,1.083A7.94,7.94,0,0,0,1.57-11,7.837,7.837,0,0,0,.508-7,7.837,7.837,0,0,0,1.57-3,7.94,7.94,0,0,0,4.487-.083,7.832,7.832,0,0,0,8.508,1a7.918,7.918,0,0,0,4-1,6.931,6.931,0,0,0,2.708-2.771,8.4,8.4,0,0,0,.958-4.063A7.69,7.69,0,0,0,16.049-8.167Zm7.708.292h2.333v2.333H23.758v2.333H21.424V-5.542H19.133V-7.875h2.292v-2.333h2.333Z" transform="translate(-0.508 15)" fill="#fff"/></svg>