<svg xmlns="http://www.w3.org/2000/svg" width="19.692" height="16" viewBox="0 0 19.692 16"><path d="M17.654-11.625a8.877,8.877,0,0,0,2.038-2.115,8.675,8.675,0,0,1-2.308.654,4.008,4.008,0,0,0,1.769-2.231,8.217,8.217,0,0,1-2.577.962,4.568,4.568,0,0,0-1.327-.923,3.853,3.853,0,0,0-1.635-.346,3.9,3.9,0,0,0-2,.538,3.952,3.952,0,0,0-1.462,1.481,4,4,0,0,0-.538,2.019,5.606,5.606,0,0,0,.077.923,11.179,11.179,0,0,1-4.635-1.231,11.136,11.136,0,0,1-3.673-3,3.866,3.866,0,0,0-.577,2.019,3.879,3.879,0,0,0,.5,1.942A4.48,4.48,0,0,0,2.615-9.471,3.8,3.8,0,0,1,.808-10.01v.077a3.872,3.872,0,0,0,.923,2.538A4.069,4.069,0,0,0,4.038-5.971a5.127,5.127,0,0,1-1.077.115q-.346,0-.731-.038a4.016,4.016,0,0,0,1.4,1.981A3.757,3.757,0,0,0,6-3.125,8.007,8.007,0,0,1,.962-1.394q-.538,0-.962-.038A11.205,11.205,0,0,0,6.192.375a11.1,11.1,0,0,0,6.269-1.808,10.984,10.984,0,0,0,3.885-4.346,11.4,11.4,0,0,0,1.346-5.346A2.291,2.291,0,0,0,17.654-11.625Z" transform="translate(0 15.625)" fill="#fff"/></svg>