<svg xmlns="http://www.w3.org/2000/svg" width="20.571" height="16" viewBox="0 0 20.571 16"><path d="M14.857-10.536a4.64,4.64,0,0,1-1,2.857,6.834,6.834,0,0,1-2.7,2.089,8.945,8.945,0,0,1-3.732.768,8.884,8.884,0,0,1-3.964-.893,6.242,6.242,0,0,1-3.179.893A.253.253,0,0,1,.036-5a.277.277,0,0,1,.071-.321,4.256,4.256,0,0,0,.429-.571A5.9,5.9,0,0,0,1.357-7.25,4.715,4.715,0,0,1,0-10.536a4.64,4.64,0,0,1,1-2.857,6.834,6.834,0,0,1,2.7-2.089,8.946,8.946,0,0,1,3.732-.768,8.945,8.945,0,0,1,3.732.768,6.834,6.834,0,0,1,2.7,2.089A4.64,4.64,0,0,1,14.857-10.536Zm4.357,7.857a6.639,6.639,0,0,0,.821,1.393,5.054,5.054,0,0,0,.429.536.277.277,0,0,1,.071.321.253.253,0,0,1-.25.179,6.242,6.242,0,0,1-3.179-.893,8.884,8.884,0,0,1-3.964.893A8.854,8.854,0,0,1,9-1.214,6.255,6.255,0,0,1,6.286-3.75a10.475,10.475,0,0,0,1.143.071,9.9,9.9,0,0,0,4.286-.929,8.1,8.1,0,0,0,3.125-2.5A5.648,5.648,0,0,0,16-10.536a6.508,6.508,0,0,0-.036-.714,7.262,7.262,0,0,1,3.321,2.089,4.746,4.746,0,0,1,1.286,3.232A4.674,4.674,0,0,1,19.214-2.679Z" transform="translate(0 16.25)" fill="#fff"/></svg>