<svg xmlns="http://www.w3.org/2000/svg" width="9.043" height="16" viewBox="0 0 9.043 16"><g transform="translate(-2204 -249)"><path d="M18.957,5.13H20.7a.348.348,0,0,0,.348-.348V2.439a.347.347,0,0,0-.322-.347C20.168,2.053,19.087,2,18.31,2a3.28,3.28,0,0,0-3.527,3.606V7.913H12.348A.348.348,0,0,0,12,8.261V10.7a.348.348,0,0,0,.348.348h2.435v6.609A.348.348,0,0,0,15.13,18h2.435a.348.348,0,0,0,.348-.348V11.043h2.512a.348.348,0,0,0,.346-.31L21.041,8.3a.348.348,0,0,0-.346-.386H17.913V6.174A1.043,1.043,0,0,1,18.957,5.13Z" transform="translate(2192 247)" fill="#fff"/></g></svg>