<svg xmlns="http://www.w3.org/2000/svg" width="19.689" height="16" viewBox="0 0 19.689 16"><g transform="translate(0.059 -5.617)"><path d="M19.63,7.511a8.08,8.08,0,0,1-2.322.637,4.049,4.049,0,0,0,1.777-2.234,8.111,8.111,0,0,1-2.566.979,4.041,4.041,0,0,0-6.882,3.684A11.47,11.47,0,0,1,1.312,6.355a4.048,4.048,0,0,0,1.251,5.4,4.036,4.036,0,0,1-1.831-.506v.051a4.045,4.045,0,0,0,3.239,3.962,4.043,4.043,0,0,1-1.063.141,3.891,3.891,0,0,1-.761-.074A4.049,4.049,0,0,0,5.92,18.131,8.1,8.1,0,0,1,.9,19.859,7.947,7.947,0,0,1-.059,19.8a11.413,11.413,0,0,0,6.192,1.815A11.414,11.414,0,0,0,17.626,10.125c0-.175,0-.351-.011-.523A8.212,8.212,0,0,0,19.63,7.511Z" fill="#fff"/></g></svg>