<svg xmlns="http://www.w3.org/2000/svg" width="16.794" height="16" viewBox="0 0 16.794 16"><g transform="translate(-823.456 -268.974)"><path d="M840.25,275.788c0-3.759-3.766-6.814-8.4-6.814s-8.4,3.055-8.4,6.814c0,3.368,2.988,6.188,7.022,6.721.273.06.645.183.741.416a1.718,1.718,0,0,1,.027.758s-.1.593-.12.718c-.038.213-.17.831.726.453a26.988,26.988,0,0,0,6.6-4.875h0A6.05,6.05,0,0,0,840.25,275.788Zm-11.684,2.235H826.9a.439.439,0,0,1-.438-.441v-3.336a.439.439,0,1,1,.878,0v2.9h1.229a.441.441,0,0,1,0,.881Zm1.724-.441a.439.439,0,1,1-.878,0v-3.336a.439.439,0,1,1,.878,0Zm4.019,0a.444.444,0,0,1-.443.441.435.435,0,0,1-.35-.176l-1.709-2.329v2.064a.442.442,0,0,1-.884,0v-3.336a.441.441,0,0,1,.793-.265l1.712,2.33v-2.065a.441.441,0,0,1,.881,0Zm2.7-2.109a.44.44,0,0,1,0,.88H835.78v.789h1.227a.441.441,0,0,1,0,.881H835.34a.441.441,0,0,1-.44-.441v-3.336a.441.441,0,0,1,.44-.44h1.667a.441.441,0,0,1,0,.881H835.78v.788h1.227Z" fill="#fff"/></g></svg>