<svg xmlns="http://www.w3.org/2000/svg" width="18.286" height="16" viewBox="0 0 18.286 16"><path d="M.653-9.186A.636.636,0,0,1,.184-9.37.636.636,0,0,1,0-9.839v-1.633a.636.636,0,0,1,.184-.469.636.636,0,0,1,.469-.184h16.98a.636.636,0,0,1,.469.184.636.636,0,0,1,.184.469v1.633a.636.636,0,0,1-.184.469.636.636,0,0,1-.469.184Zm0,6.531a.636.636,0,0,1-.469-.184A.636.636,0,0,1,0-3.309V-4.941a.636.636,0,0,1,.184-.469.636.636,0,0,1,.469-.184h16.98a.636.636,0,0,1,.469.184.636.636,0,0,1,.184.469v1.633a.636.636,0,0,1-.184.469.636.636,0,0,1-.469.184Zm0,6.531A.629.629,0,0,1,0,3.222V1.589A.629.629,0,0,1,.653.936h16.98a.629.629,0,0,1,.653.653V3.222a.629.629,0,0,1-.653.653Z" transform="translate(0 12.125)" fill="#fff"/></svg>