<svg xmlns="http://www.w3.org/2000/svg" width="16" height="16" viewBox="0 0 16 16"><path d="M11.045-3.5l4.545,4.545a1.36,1.36,0,0,1,.409,1,1.517,1.517,0,0,1-.409,1.045l-1,1a1.517,1.517,0,0,1-1.045.409,1.36,1.36,0,0,1-1-.409L8-.455,3.455,4.091a1.36,1.36,0,0,1-1,.409,1.517,1.517,0,0,1-1.045-.409l-1-1A1.517,1.517,0,0,1,0,2.045a1.36,1.36,0,0,1,.409-1L4.955-3.5.409-8.045a1.36,1.36,0,0,1-.409-1,1.517,1.517,0,0,1,.409-1.045l1-1A1.517,1.517,0,0,1,2.455-11.5a1.36,1.36,0,0,1,1,.409L8-6.545l4.545-4.545a1.36,1.36,0,0,1,1-.409,1.517,1.517,0,0,1,1.045.409l1,1A1.517,1.517,0,0,1,16-9.045a1.36,1.36,0,0,1-.409,1Z" transform="translate(0 11.5)" fill="#fff"/></svg>