<svg xmlns="http://www.w3.org/2000/svg" width="16" height="16" viewBox="0 0 16 16"><path d="M15.781-3.656A.723.723,0,0,1,16-3.125a.723.723,0,0,1-.219.531l-.875.875a.723.723,0,0,1-.531.219.723.723,0,0,1-.531-.219L10.719-4.844a.723.723,0,0,1-.219-.531v-.5A6.3,6.3,0,0,1,6.5-4.5a6.313,6.313,0,0,1-3.266-.875A6.567,6.567,0,0,1,.875-7.734,6.313,6.313,0,0,1,0-11a6.313,6.313,0,0,1,.875-3.266,6.567,6.567,0,0,1,2.359-2.359A6.313,6.313,0,0,1,6.5-17.5a6.313,6.313,0,0,1,3.266.875,6.567,6.567,0,0,1,2.359,2.359A6.313,6.313,0,0,1,13-11a6.3,6.3,0,0,1-1.375,4h.5a.723.723,0,0,1,.531.219ZM6.5-7a3.966,3.966,0,0,0,2.016-.531A3.891,3.891,0,0,0,9.969-8.984,3.966,3.966,0,0,0,10.5-11a3.966,3.966,0,0,0-.531-2.016,3.891,3.891,0,0,0-1.453-1.453A3.966,3.966,0,0,0,6.5-15a3.966,3.966,0,0,0-2.016.531,3.891,3.891,0,0,0-1.453,1.453A3.966,3.966,0,0,0,2.5-11a3.966,3.966,0,0,0,.531,2.016A3.891,3.891,0,0,0,4.484-7.531,3.966,3.966,0,0,0,6.5-7Z" transform="translate(0 17.5)" fill="#fff"/></svg>